<svg width="1666" height="1734" viewBox="0 0 1666 1734" fill="none" xmlns="http://www.w3.org/2000/svg">
<ellipse cx="1156.66" cy="76.9525" rx="77.7803" ry="76.9525" fill="#51C4D3" fill-opacity="0.21"/>
<ellipse cx="940.891" cy="76.9525" rx="77.7803" ry="76.9525" fill="#51C4D3" fill-opacity="0.21"/>
<ellipse cx="1588.22" cy="76.9525" rx="77.7803" ry="76.9525" fill="#51C4D3" fill-opacity="0.21"/>
<ellipse cx="1372.45" cy="76.9525" rx="77.7803" ry="76.9525" fill="#51C4D3" fill-opacity="0.21"/>
<ellipse cx="293.563" cy="76.9525" rx="77.7803" ry="76.9525" fill="#51C4D3" fill-opacity="0.21"/>
<ellipse cx="77.7803" cy="76.9525" rx="77.7803" ry="76.9525" fill="#51C4D3" fill-opacity="0.21"/>
<ellipse cx="725.119" cy="76.9525" rx="77.7803" ry="76.9525" fill="#51C4D3" fill-opacity="0.21"/>
<ellipse cx="509.336" cy="76.9525" rx="77.7803" ry="76.9525" fill="#51C4D3" fill-opacity="0.21"/>
<ellipse cx="1156.66" cy="302.683" rx="77.7803" ry="76.9525" fill="#51C4D3" fill-opacity="0.21"/>
<ellipse cx="940.891" cy="302.683" rx="77.7803" ry="76.9525" fill="#51C4D3" fill-opacity="0.21"/>
<ellipse cx="1588.22" cy="302.683" rx="77.7803" ry="76.9525" fill="#51C4D3" fill-opacity="0.21"/>
<ellipse cx="1372.45" cy="302.683" rx="77.7803" ry="76.9525" fill="#51C4D3" fill-opacity="0.21"/>
<ellipse cx="293.563" cy="302.683" rx="77.7803" ry="76.9525" fill="#51C4D3" fill-opacity="0.21"/>
<ellipse cx="77.7803" cy="302.683" rx="77.7803" ry="76.9525" fill="#51C4D3" fill-opacity="0.21"/>
<ellipse cx="725.119" cy="302.683" rx="77.7803" ry="76.9525" fill="#51C4D3" fill-opacity="0.21"/>
<ellipse cx="509.336" cy="302.683" rx="77.7803" ry="76.9525" fill="#51C4D3" fill-opacity="0.21"/>
<ellipse cx="1156.66" cy="528.409" rx="77.7803" ry="76.9525" fill="#51C4D3" fill-opacity="0.21"/>
<ellipse cx="940.891" cy="528.409" rx="77.7803" ry="76.9525" fill="#51C4D3" fill-opacity="0.21"/>
<ellipse cx="1588.22" cy="528.409" rx="77.7803" ry="76.9525" fill="#51C4D3" fill-opacity="0.21"/>
<ellipse cx="1372.45" cy="528.409" rx="77.7803" ry="76.9525" fill="#51C4D3" fill-opacity="0.21"/>
<ellipse cx="293.563" cy="528.409" rx="77.7803" ry="76.9525" fill="#51C4D3" fill-opacity="0.21"/>
<ellipse cx="77.7803" cy="528.409" rx="77.7803" ry="76.9525" fill="#51C4D3" fill-opacity="0.21"/>
<ellipse cx="725.119" cy="528.409" rx="77.7803" ry="76.9525" fill="#51C4D3" fill-opacity="0.21"/>
<ellipse cx="509.336" cy="528.409" rx="77.7803" ry="76.9525" fill="#51C4D3" fill-opacity="0.21"/>
<ellipse cx="1156.66" cy="754.135" rx="77.7803" ry="76.9525" fill="#51C4D3" fill-opacity="0.21"/>
<ellipse cx="940.891" cy="754.135" rx="77.7803" ry="76.9525" fill="#51C4D3" fill-opacity="0.21"/>
<ellipse cx="1588.22" cy="754.135" rx="77.7803" ry="76.9525" fill="#51C4D3" fill-opacity="0.21"/>
<ellipse cx="1372.45" cy="754.135" rx="77.7803" ry="76.9525" fill="#51C4D3" fill-opacity="0.21"/>
<ellipse cx="293.563" cy="754.135" rx="77.7803" ry="76.9525" fill="#51C4D3" fill-opacity="0.21"/>
<ellipse cx="77.7803" cy="754.135" rx="77.7803" ry="76.9525" fill="#51C4D3" fill-opacity="0.21"/>
<ellipse cx="725.119" cy="754.135" rx="77.7803" ry="76.9525" fill="#51C4D3" fill-opacity="0.21"/>
<ellipse cx="509.336" cy="754.135" rx="77.7803" ry="76.9525" fill="#51C4D3" fill-opacity="0.21"/>
<ellipse cx="1156.66" cy="76.9525" rx="77.7803" ry="76.9525" fill="#51C4D3" fill-opacity="0.21"/>
<ellipse cx="940.891" cy="76.9525" rx="77.7803" ry="76.9525" fill="#51C4D3" fill-opacity="0.21"/>
<ellipse cx="1588.22" cy="76.9525" rx="77.7803" ry="76.9525" fill="#51C4D3" fill-opacity="0.21"/>
<ellipse cx="1372.45" cy="76.9525" rx="77.7803" ry="76.9525" fill="#51C4D3" fill-opacity="0.21"/>
<ellipse cx="293.563" cy="76.9525" rx="77.7803" ry="76.9525" fill="#51C4D3" fill-opacity="0.21"/>
<ellipse cx="77.7803" cy="76.9525" rx="77.7803" ry="76.9525" fill="#51C4D3" fill-opacity="0.21"/>
<ellipse cx="725.119" cy="76.9525" rx="77.7803" ry="76.9525" fill="#51C4D3" fill-opacity="0.21"/>
<ellipse cx="509.336" cy="76.9525" rx="77.7803" ry="76.9525" fill="#51C4D3" fill-opacity="0.21"/>
<ellipse cx="1156.66" cy="302.683" rx="77.7803" ry="76.9525" fill="#51C4D3" fill-opacity="0.21"/>
<ellipse cx="940.891" cy="302.683" rx="77.7803" ry="76.9525" fill="#51C4D3" fill-opacity="0.21"/>
<ellipse cx="1588.22" cy="302.683" rx="77.7803" ry="76.9525" fill="#51C4D3" fill-opacity="0.21"/>
<ellipse cx="1372.45" cy="302.683" rx="77.7803" ry="76.9525" fill="#51C4D3" fill-opacity="0.21"/>
<ellipse cx="293.563" cy="302.683" rx="77.7803" ry="76.9525" fill="#51C4D3" fill-opacity="0.21"/>
<ellipse cx="77.7803" cy="302.683" rx="77.7803" ry="76.9525" fill="#51C4D3" fill-opacity="0.21"/>
<ellipse cx="725.119" cy="302.683" rx="77.7803" ry="76.9525" fill="#51C4D3" fill-opacity="0.21"/>
<ellipse cx="509.336" cy="302.683" rx="77.7803" ry="76.9525" fill="#51C4D3" fill-opacity="0.21"/>
<ellipse cx="1156.66" cy="528.409" rx="77.7803" ry="76.9525" fill="#51C4D3" fill-opacity="0.21"/>
<ellipse cx="940.891" cy="528.409" rx="77.7803" ry="76.9525" fill="#51C4D3" fill-opacity="0.21"/>
<ellipse cx="1588.22" cy="528.409" rx="77.7803" ry="76.9525" fill="#51C4D3" fill-opacity="0.21"/>
<ellipse cx="1372.45" cy="528.409" rx="77.7803" ry="76.9525" fill="#51C4D3" fill-opacity="0.21"/>
<ellipse cx="293.563" cy="528.409" rx="77.7803" ry="76.9525" fill="#51C4D3" fill-opacity="0.21"/>
<ellipse cx="77.7803" cy="528.409" rx="77.7803" ry="76.9525" fill="#51C4D3" fill-opacity="0.21"/>
<ellipse cx="725.119" cy="528.409" rx="77.7803" ry="76.9525" fill="#51C4D3" fill-opacity="0.21"/>
<ellipse cx="509.336" cy="528.409" rx="77.7803" ry="76.9525" fill="#51C4D3" fill-opacity="0.21"/>
<ellipse cx="1156.66" cy="754.135" rx="77.7803" ry="76.9525" fill="#51C4D3" fill-opacity="0.21"/>
<ellipse cx="940.891" cy="754.135" rx="77.7803" ry="76.9525" fill="#51C4D3" fill-opacity="0.21"/>
<ellipse cx="1588.22" cy="754.135" rx="77.7803" ry="76.9525" fill="#51C4D3" fill-opacity="0.21"/>
<ellipse cx="1372.45" cy="754.135" rx="77.7803" ry="76.9525" fill="#51C4D3" fill-opacity="0.21"/>
<ellipse cx="293.563" cy="754.135" rx="77.7803" ry="76.9525" fill="#51C4D3" fill-opacity="0.21"/>
<ellipse cx="77.7803" cy="754.135" rx="77.7803" ry="76.9525" fill="#51C4D3" fill-opacity="0.21"/>
<ellipse cx="725.119" cy="754.135" rx="77.7803" ry="76.9525" fill="#51C4D3" fill-opacity="0.21"/>
<ellipse cx="509.336" cy="754.135" rx="77.7803" ry="76.9525" fill="#51C4D3" fill-opacity="0.21"/>
<ellipse cx="1156.66" cy="979.866" rx="77.7803" ry="76.9525" fill="#51C4D3" fill-opacity="0.21"/>
<ellipse cx="940.891" cy="979.866" rx="77.7803" ry="76.9525" fill="#51C4D3" fill-opacity="0.21"/>
<ellipse cx="1588.22" cy="979.866" rx="77.7803" ry="76.9525" fill="#51C4D3" fill-opacity="0.21"/>
<ellipse cx="1372.45" cy="979.866" rx="77.7803" ry="76.9525" fill="#51C4D3" fill-opacity="0.21"/>
<ellipse cx="293.563" cy="979.866" rx="77.7803" ry="76.9525" fill="#51C4D3" fill-opacity="0.21"/>
<ellipse cx="77.7803" cy="979.866" rx="77.7803" ry="76.9525" fill="#51C4D3" fill-opacity="0.21"/>
<ellipse cx="725.119" cy="979.866" rx="77.7803" ry="76.9525" fill="#51C4D3" fill-opacity="0.21"/>
<ellipse cx="509.336" cy="979.866" rx="77.7803" ry="76.9525" fill="#51C4D3" fill-opacity="0.21"/>
<ellipse cx="1156.66" cy="1205.59" rx="77.7803" ry="76.9525" fill="#51C4D3" fill-opacity="0.21"/>
<ellipse cx="940.891" cy="1205.59" rx="77.7803" ry="76.9525" fill="#51C4D3" fill-opacity="0.21"/>
<ellipse cx="1588.22" cy="1205.59" rx="77.7803" ry="76.9525" fill="#51C4D3" fill-opacity="0.21"/>
<ellipse cx="1372.45" cy="1205.59" rx="77.7803" ry="76.9525" fill="#51C4D3" fill-opacity="0.21"/>
<ellipse cx="293.563" cy="1205.59" rx="77.7803" ry="76.9525" fill="#51C4D3" fill-opacity="0.21"/>
<ellipse cx="77.7803" cy="1205.59" rx="77.7803" ry="76.9525" fill="#51C4D3" fill-opacity="0.21"/>
<ellipse cx="725.119" cy="1205.59" rx="77.7803" ry="76.9525" fill="#51C4D3" fill-opacity="0.21"/>
<ellipse cx="509.336" cy="1205.59" rx="77.7803" ry="76.9525" fill="#51C4D3" fill-opacity="0.21"/>
<ellipse cx="1156.66" cy="1431.32" rx="77.7803" ry="76.9525" fill="#51C4D3" fill-opacity="0.21"/>
<ellipse cx="940.891" cy="1431.32" rx="77.7803" ry="76.9525" fill="#51C4D3" fill-opacity="0.21"/>
<ellipse cx="1588.22" cy="1431.32" rx="77.7803" ry="76.9525" fill="#51C4D3" fill-opacity="0.21"/>
<ellipse cx="1372.45" cy="1431.32" rx="77.7803" ry="76.9525" fill="#51C4D3" fill-opacity="0.21"/>
<ellipse cx="293.563" cy="1431.32" rx="77.7803" ry="76.9525" fill="#51C4D3" fill-opacity="0.21"/>
<ellipse cx="77.7803" cy="1431.32" rx="77.7803" ry="76.9525" fill="#51C4D3" fill-opacity="0.21"/>
<ellipse cx="725.119" cy="1431.32" rx="77.7803" ry="76.9525" fill="#51C4D3" fill-opacity="0.21"/>
<ellipse cx="509.336" cy="1431.32" rx="77.7803" ry="76.9525" fill="#51C4D3" fill-opacity="0.21"/>
<ellipse cx="1156.66" cy="1657.05" rx="77.7803" ry="76.9525" fill="#51C4D3" fill-opacity="0.21"/>
<ellipse cx="940.891" cy="1657.05" rx="77.7803" ry="76.9525" fill="#51C4D3" fill-opacity="0.21"/>
<ellipse cx="1588.22" cy="1657.05" rx="77.7803" ry="76.9525" fill="#51C4D3" fill-opacity="0.21"/>
<ellipse cx="1372.45" cy="1657.05" rx="77.7803" ry="76.9525" fill="#51C4D3" fill-opacity="0.21"/>
<ellipse cx="293.563" cy="1657.05" rx="77.7803" ry="76.9525" fill="#51C4D3" fill-opacity="0.21"/>
<ellipse cx="77.7803" cy="1657.05" rx="77.7803" ry="76.9525" fill="#51C4D3" fill-opacity="0.21"/>
<ellipse cx="725.119" cy="1657.05" rx="77.7803" ry="76.9525" fill="#51C4D3" fill-opacity="0.21"/>
<ellipse cx="509.336" cy="1657.05" rx="77.7803" ry="76.9525" fill="#51C4D3" fill-opacity="0.21"/>
<ellipse cx="1156.66" cy="979.866" rx="77.7803" ry="76.9525" fill="#51C4D3" fill-opacity="0.21"/>
<ellipse cx="940.891" cy="979.866" rx="77.7803" ry="76.9525" fill="#51C4D3" fill-opacity="0.21"/>
<ellipse cx="1588.22" cy="979.866" rx="77.7803" ry="76.9525" fill="#51C4D3" fill-opacity="0.21"/>
<ellipse cx="1372.45" cy="979.866" rx="77.7803" ry="76.9525" fill="#51C4D3" fill-opacity="0.21"/>
<ellipse cx="293.563" cy="979.866" rx="77.7803" ry="76.9525" fill="#51C4D3" fill-opacity="0.21"/>
<ellipse cx="77.7803" cy="979.866" rx="77.7803" ry="76.9525" fill="#51C4D3" fill-opacity="0.21"/>
<ellipse cx="725.119" cy="979.866" rx="77.7803" ry="76.9525" fill="#51C4D3" fill-opacity="0.21"/>
<ellipse cx="509.336" cy="979.866" rx="77.7803" ry="76.9525" fill="#51C4D3" fill-opacity="0.21"/>
<ellipse cx="1156.66" cy="1205.59" rx="77.7803" ry="76.9525" fill="#51C4D3" fill-opacity="0.21"/>
<ellipse cx="940.891" cy="1205.59" rx="77.7803" ry="76.9525" fill="#51C4D3" fill-opacity="0.21"/>
<ellipse cx="1588.22" cy="1205.59" rx="77.7803" ry="76.9525" fill="#51C4D3" fill-opacity="0.21"/>
<ellipse cx="1372.45" cy="1205.59" rx="77.7803" ry="76.9525" fill="#51C4D3" fill-opacity="0.21"/>
<ellipse cx="293.563" cy="1205.59" rx="77.7803" ry="76.9525" fill="#51C4D3" fill-opacity="0.21"/>
<ellipse cx="77.7803" cy="1205.59" rx="77.7803" ry="76.9525" fill="#51C4D3" fill-opacity="0.21"/>
<ellipse cx="725.119" cy="1205.59" rx="77.7803" ry="76.9525" fill="#51C4D3" fill-opacity="0.21"/>
<ellipse cx="509.336" cy="1205.59" rx="77.7803" ry="76.9525" fill="#51C4D3" fill-opacity="0.21"/>
<ellipse cx="1156.66" cy="1431.32" rx="77.7803" ry="76.9525" fill="#51C4D3" fill-opacity="0.21"/>
<ellipse cx="940.891" cy="1431.32" rx="77.7803" ry="76.9525" fill="#51C4D3" fill-opacity="0.21"/>
<ellipse cx="1588.22" cy="1431.32" rx="77.7803" ry="76.9525" fill="#51C4D3" fill-opacity="0.21"/>
<ellipse cx="1372.45" cy="1431.32" rx="77.7803" ry="76.9525" fill="#51C4D3" fill-opacity="0.21"/>
<ellipse cx="293.563" cy="1431.32" rx="77.7803" ry="76.9525" fill="#51C4D3" fill-opacity="0.21"/>
<ellipse cx="77.7803" cy="1431.32" rx="77.7803" ry="76.9525" fill="#51C4D3" fill-opacity="0.21"/>
<ellipse cx="725.119" cy="1431.32" rx="77.7803" ry="76.9525" fill="#51C4D3" fill-opacity="0.21"/>
<ellipse cx="509.336" cy="1431.32" rx="77.7803" ry="76.9525" fill="#51C4D3" fill-opacity="0.21"/>
<ellipse cx="1156.66" cy="1657.05" rx="77.7803" ry="76.9525" fill="#51C4D3" fill-opacity="0.21"/>
<ellipse cx="940.891" cy="1657.05" rx="77.7803" ry="76.9525" fill="#51C4D3" fill-opacity="0.21"/>
<ellipse cx="1588.22" cy="1657.05" rx="77.7803" ry="76.9525" fill="#51C4D3" fill-opacity="0.21"/>
<ellipse cx="1372.45" cy="1657.05" rx="77.7803" ry="76.9525" fill="#51C4D3" fill-opacity="0.21"/>
<ellipse cx="293.563" cy="1657.05" rx="77.7803" ry="76.9525" fill="#51C4D3" fill-opacity="0.21"/>
<ellipse cx="77.7803" cy="1657.05" rx="77.7803" ry="76.9525" fill="#51C4D3" fill-opacity="0.21"/>
<ellipse cx="725.119" cy="1657.05" rx="77.7803" ry="76.9525" fill="#51C4D3" fill-opacity="0.21"/>
<ellipse cx="509.336" cy="1657.05" rx="77.7803" ry="76.9525" fill="#51C4D3" fill-opacity="0.21"/>
</svg>
